<svg id="svg" version="1.1" xmlns="http://www.w3.org/2000/svg" xmlns:xlink="http://www.w3.org/1999/xlink" width="400" height="400" viewBox="0, 0, 400,400"><g id="svgg"><path id="path0" d="M91.920 75.247 C 81.379 76.605,72.227 85.023,68.456 96.828 C 67.802 98.877,67.802 301.123,68.456 303.172 C 72.463 315.715,81.859 323.858,93.393 324.781 C 97.286 325.093,299.163 324.949,306.800 324.629 C 317.836 324.167,327.520 315.770,331.544 303.172 C 332.198 301.123,332.198 98.877,331.544 96.828 C 327.544 84.306,318.401 76.373,306.600 75.184 C 301.991 74.720,95.541 74.780,91.920 75.247 M304.001 115.900 C 304.001 122.885,304.120 166.130,304.265 212.000 C 304.410 257.870,304.402 296.075,304.246 296.900 L 303.964 298.400 199.982 298.400 L 96.000 298.400 96.000 200.800 L 96.000 103.200 200.000 103.200 L 304.000 103.200 304.001 115.900 M186.667 130.667 C 186.520 130.813,186.400 162.133,186.400 200.267 L 186.400 269.600 200.000 269.600 L 213.600 269.600 213.600 200.000 L 213.600 130.400 200.267 130.400 C 192.933 130.400,186.813 130.520,186.667 130.667 M130.587 172.495 C 130.481 172.773,130.440 194.690,130.497 221.200 L 130.600 269.400 144.400 269.400 L 158.200 269.400 158.200 220.800 L 158.200 172.200 144.489 172.095 C 133.736 172.012,130.737 172.098,130.587 172.495 M242.097 213.928 C 241.700 214.183,241.616 220.032,241.697 241.825 L 241.800 269.400 255.703 269.505 L 269.605 269.610 269.503 241.705 L 269.400 213.800 256.000 213.703 C 248.630 213.650,242.374 213.751,242.097 213.928 " stroke="none" fill="#eaeaeb" fill-rule="evenodd"></path><path id="path1" d="M0.000 200.000 L 0.000 400.000 200.000 400.000 L 400.000 400.000 400.000 200.000 L 400.000 0.000 200.000 0.000 L 0.000 0.000 0.000 200.000 M306.600 75.184 C 318.401 76.373,327.544 84.306,331.544 96.828 C 332.198 98.877,332.198 301.123,331.544 303.172 C 327.520 315.770,317.836 324.167,306.800 324.629 C 299.163 324.949,97.286 325.093,93.393 324.781 C 81.859 323.858,72.463 315.715,68.456 303.172 C 67.802 301.123,67.802 98.877,68.456 96.828 C 72.227 85.023,81.379 76.605,91.920 75.247 C 95.541 74.780,301.991 74.720,306.600 75.184 M96.000 200.800 L 96.000 298.400 199.982 298.400 L 303.964 298.400 304.246 296.900 C 304.402 296.075,304.410 257.870,304.265 212.000 C 304.120 166.130,304.001 122.885,304.001 115.900 L 304.000 103.200 200.000 103.200 L 96.000 103.200 96.000 200.800 M213.600 200.000 L 213.600 269.600 200.000 269.600 L 186.400 269.600 186.400 200.267 C 186.400 162.133,186.520 130.813,186.667 130.667 C 186.813 130.520,192.933 130.400,200.267 130.400 L 213.600 130.400 213.600 200.000 M158.200 220.800 L 158.200 269.400 144.400 269.400 L 130.600 269.400 130.497 221.200 C 130.440 194.690,130.481 172.773,130.587 172.495 C 130.737 172.098,133.736 172.012,144.489 172.095 L 158.200 172.200 158.200 220.800 M269.503 241.705 L 269.605 269.610 255.703 269.505 L 241.800 269.400 241.697 241.825 C 241.616 220.032,241.700 214.183,242.097 213.928 C 242.374 213.751,248.630 213.650,256.000 213.703 L 269.400 213.800 269.503 241.705 " stroke="none" fill="#202075" fill-rule="evenodd"></path></g></svg>